# xmcd
#
# Track frame offsets:
#	182
#	16782
#	33570
#	64445
#	92807
#	119632
#	140620
#	170145
#	195745
#
# Disc length: 2837 seconds
#
# Revision: 1
# Processed by: cddbd v1.5.1PL0 Copyright (c) Steve Scherf et al.
# Submitted via: CDex 1.50Beta5
#
DISCID=860b1309
DTITLE=杉本竜一 - この星に生まれて
DYEAR=1996
DGENRE=Soundtrack
TTITLE0=生命の息吹
TTITLE1=Birth
TTITLE2=ION
TTITLE3=Blue Sky
TTITLE4=Calm Wave
TTITLE5=静けさの中で
TTITLE6=ASIA
TTITLE7=夢の彼方へ
TTITLE8=この星に生まれて
EXTD=
EXTT0=
EXTT1=
EXTT2=
EXTT3=
EXTT4=
EXTT5=
EXTT6=
EXTT7=
EXTT8=
PLAYORDER=
